<svg width="1280px" height="1280px" viewBox="0 0 640 640" fill="none" xmlns="http://www.w3.org/2000/svg">
    <path d="M182.235 396.578c-3.034 -173.795 -29.784 -142.642 158.011 -142.642 15.882 0 84.365 -8.069 96.178 0.568 2.658 1.941 10.774 139.699 13.098 155.01" stroke="#000000" stroke-opacity="0.9" stroke-width="25.6" stroke-linecap="round" stroke-linejoin="round"/>
    <path d="M249.563 266.989c-1.149 14.122 0.573 28.086 1.446 42.056 0.61 9.842 -6.728 63.112 -1.446 71.067 7.2 10.837 73.917 6.4 85.747 5.602 12.528 -0.837 38.341 6.642 41.283 -5.602 4.4 -18.304 4.4 -88.25 4.4 -126.178" stroke="#000000" stroke-opacity="0.9" stroke-width="25.6" stroke-linecap="round" stroke-linejoin="round"/>
    <path d="M271.315 387.288c-2.315 2.262 11.25 148.664 -1.283 157.893 -2.405 1.771 -18.555 0.878 -22.392 1.389" stroke="#000000" stroke-opacity="0.9" stroke-width="25.6" stroke-linecap="round" stroke-linejoin="round"/>
    <path d="M349.437 396.547c5.654 22.389 -6.034 135.608 0.005 148.102 2.253 4.662 13.154 3.688 18.587 3.688" stroke="#000000" stroke-opacity="0.9" stroke-width="25.6" stroke-linecap="round" stroke-linejoin="round"/>
    <path d="M288.387 469.005c-8.627 2.134 -17.138 3.253 -25.93 3.253" stroke="#000000" stroke-opacity="0.9" stroke-width="25.6" stroke-linecap="round" stroke-linejoin="round"/>
    <path d="M358.77 466.67c-6.01 -3.053 -11.374 1.11 -16.67 1.629" stroke="#000000" stroke-opacity="0.9" stroke-width="25.6" stroke-linecap="round" stroke-linejoin="round"/>
    <path d="M473.6 416.726c-15.72 -8.568 -24.742 -7.866 -31.486 9.456" stroke="#000000" stroke-opacity="0.9" stroke-width="25.6" stroke-linecap="round" stroke-linejoin="round"/>
    <path d="M168 411.365c8.694 -11.07 23.486 -13.064 31.486 -1.322" stroke="#000000" stroke-opacity="0.9" stroke-width="25.6" stroke-linecap="round" stroke-linejoin="round"/>
    <path d="M188.374 337.504c-5.429 1.853 -11.09 2.534 -16.67 3.261" stroke="#000000" stroke-opacity="0.9" stroke-width="25.6" stroke-linecap="round" stroke-linejoin="round"/>
    <path d="M451.374 321.874c-6.045 1.682 -10.694 2.082 -16.67 4.882" stroke="#000000" stroke-opacity="0.9" stroke-width="25.6" stroke-linecap="round" stroke-linejoin="round"/>
    <path d="M203.19 148.363h-20.373" stroke="#000000" stroke-opacity="0.9" stroke-width="25.6" stroke-linecap="round" stroke-linejoin="round"/>
    <path d="M429.149 147.408c5.362 -2.542 11.059 -1.632 16.669 -1.632" stroke="#000000" stroke-opacity="0.9" stroke-width="25.6" stroke-linecap="round" stroke-linejoin="round"/>
    <path d="M459.05 139.104c-9.971 27.843 1.379 -7.032 -3.251 16.669" stroke="#000000" stroke-opacity="0.9" stroke-width="25.6" stroke-linecap="round" stroke-linejoin="round"/>
    <path d="M180.966 139.104v14.816" stroke="#000000" stroke-opacity="0.9" stroke-width="25.6" stroke-linecap="round" stroke-linejoin="round"/>
    <path d="M301.354 135.398v11.114" stroke="#000000" stroke-opacity="0.9" stroke-width="25.6" stroke-linecap="round" stroke-linejoin="round"/>
    <path d="M303.528 300.79c61.882 -32.69 41.707 78.168 -7.155 42.173 -11.405 -8.402 -4.186 -23.464 0 -33.739" stroke="#000000" stroke-opacity="0.9" stroke-width="19.200000000000003" stroke-linecap="round" stroke-linejoin="round"/>
    <path d="M219.434 114.73c0 20.56 -14.694 69.427 -1.448 91.635 1.37 2.288 146.258 4.358 161.979 4.358 4.795 0 28.902 4.386 31.818 1.456 5.038 -5.067 0.702 -34.029 1.446 -40.723 10.643 -96.331 -3.098 -77.088 -114.256 -77.088 -27.2 0 -54.354 0.536 -80.987 4.366" stroke="#000000" stroke-opacity="0.9" stroke-width="25.6" stroke-linecap="round" stroke-linejoin="round"/>
    <path d="M337.613 135.398c-1.304 2.859 -2.067 10.285 -2.141 11.114" stroke="#000000" stroke-opacity="0.9" stroke-width="25.6" stroke-linecap="round" stroke-linejoin="round"/>
  </svg>
  